<svg width="30" height="27" viewBox="0 0 30 27" fill="none" xmlns="http://www.w3.org/2000/svg">
<path d="M2.66667 26.6667C1.93333 26.6667 1.30556 26.4056 0.783333 25.8833C0.261111 25.3611 0 24.7333 0 24V8C0 7.26667 0.261111 6.63889 0.783333 6.11667C1.30556 5.59444 1.93333 5.33333 2.66667 5.33333H6.86667L9.33333 2.66667H17.3333V5.33333H10.5L8.06667 8H2.66667V24H24V12H26.6667V24C26.6667 24.7333 26.4056 25.3611 25.8833 25.8833C25.3611 26.4056 24.7333 26.6667 24 26.6667H2.66667ZM24 8V5.33333H21.3333V2.66667H24V0H26.6667V2.66667H29.3333V5.33333H26.6667V8H24ZM13.3333 22C15 22 16.4167 21.4167 17.5833 20.25C18.75 19.0833 19.3333 17.6667 19.3333 16C19.3333 14.3333 18.75 12.9167 17.5833 11.75C16.4167 10.5833 15 10 13.3333 10C11.6667 10 10.25 10.5833 9.08333 11.75C7.91667 12.9167 7.33333 14.3333 7.33333 16C7.33333 17.6667 7.91667 19.0833 9.08333 20.25C10.25 21.4167 11.6667 22 13.3333 22ZM13.3333 19.3333C12.4 19.3333 11.6111 19.0111 10.9667 18.3667C10.3222 17.7222 10 16.9333 10 16C10 15.0667 10.3222 14.2778 10.9667 13.6333C11.6111 12.9889 12.4 12.6667 13.3333 12.6667C14.2667 12.6667 15.0556 12.9889 15.7 13.6333C16.3444 14.2778 16.6667 15.0667 16.6667 16C16.6667 16.9333 16.3444 17.7222 15.7 18.3667C15.0556 19.0111 14.2667 19.3333 13.3333 19.3333Z" fill="#9CC6FF"/>
</svg>
