<svg width="56" height="56" viewBox="0 0 56 56" fill="none" xmlns="http://www.w3.org/2000/svg">
<rect width="56" height="56" rx="8" fill="#003B6B"/>
<path d="M28 34.25C28.3542 34.25 28.651 34.1302 28.8906 33.8906C29.1302 33.651 29.25 33.3542 29.25 33C29.25 32.6458 29.1302 32.349 28.8906 32.1094C28.651 31.8698 28.3542 31.75 28 31.75C27.6458 31.75 27.349 31.8698 27.1094 32.1094C26.8698 32.349 26.75 32.6458 26.75 33C26.75 33.3542 26.8698 33.651 27.1094 33.8906C27.349 34.1302 27.6458 34.25 28 34.25ZM26.75 29.25H29.25V21.75H26.75V29.25ZM23.3125 39.25L16.75 32.6875V23.3125L23.3125 16.75H32.6875L39.25 23.3125V32.6875L32.6875 39.25H23.3125ZM24.375 36.75H31.625L36.75 31.625V24.375L31.625 19.25H24.375L19.25 24.375V31.625L24.375 36.75Z" fill="white"/>
</svg>
