<svg width="56" height="56" viewBox="0 0 56 56" fill="none" xmlns="http://www.w3.org/2000/svg">
<rect width="56" height="56" rx="8" fill="#315CAA"/>
<path d="M28 33.625C29.5625 33.625 30.8906 33.0781 31.9844 31.9844C33.0781 30.8906 33.625 29.5625 33.625 28C33.625 26.4375 33.0781 25.1094 31.9844 24.0156C30.8906 22.9219 29.5625 22.375 28 22.375C26.4375 22.375 25.1094 22.9219 24.0156 24.0156C22.9219 25.1094 22.375 26.4375 22.375 28C22.375 29.5625 22.9219 30.8906 24.0156 31.9844C25.1094 33.0781 26.4375 33.625 28 33.625ZM28 31.375C27.0625 31.375 26.2656 31.0469 25.6094 30.3906C24.9531 29.7344 24.625 28.9375 24.625 28C24.625 27.0625 24.9531 26.2656 25.6094 25.6094C26.2656 24.9531 27.0625 24.625 28 24.625C28.9375 24.625 29.7344 24.9531 30.3906 25.6094C31.0469 26.2656 31.375 27.0625 31.375 28C31.375 28.9375 31.0469 29.7344 30.3906 30.3906C29.7344 31.0469 28.9375 31.375 28 31.375ZM28 37.375C24.9583 37.375 22.1875 36.526 19.6875 34.8281C17.1875 33.1302 15.375 30.8542 14.25 28C15.375 25.1458 17.1875 22.8698 19.6875 21.1719C22.1875 19.474 24.9583 18.625 28 18.625C31.0417 18.625 33.8125 19.474 36.3125 21.1719C38.8125 22.8698 40.625 25.1458 41.75 28C40.625 30.8542 38.8125 33.1302 36.3125 34.8281C33.8125 36.526 31.0417 37.375 28 37.375ZM28 34.875C30.3542 34.875 32.5156 34.2552 34.4844 33.0156C36.4531 31.776 37.9583 30.1042 39 28C37.9583 25.8958 36.4531 24.224 34.4844 22.9844C32.5156 21.7448 30.3542 21.125 28 21.125C25.6458 21.125 23.4844 21.7448 21.5156 22.9844C19.5469 24.224 18.0417 25.8958 17 28C18.0417 30.1042 19.5469 31.776 21.5156 33.0156C23.4844 34.2552 25.6458 34.875 28 34.875Z" fill="white"/>
</svg>
