<svg width="36" height="36" viewBox="0 0 36 36" fill="none" xmlns="http://www.w3.org/2000/svg">
<rect width="36" height="36" rx="8" fill="white"/>
<path d="M18 28C16.6167 28 15.3167 27.7375 14.1 27.2125C12.8833 26.6875 11.825 25.975 10.925 25.075C10.025 24.175 9.3125 23.1167 8.7875 21.9C8.2625 20.6833 8 19.3833 8 18C8 16.6167 8.2625 15.3167 8.7875 14.1C9.3125 12.8833 10.025 11.825 10.925 10.925C11.825 10.025 12.8833 9.3125 14.1 8.7875C15.3167 8.2625 16.6167 8 18 8H19V16.275C19.3 16.4583 19.5417 16.6958 19.725 16.9875C19.9083 17.2792 20 17.6167 20 18C20 18.55 19.8042 19.0208 19.4125 19.4125C19.0208 19.8042 18.55 20 18 20C17.45 20 16.9792 19.8042 16.5875 19.4125C16.1958 19.0208 16 18.55 16 18C16 17.6167 16.0917 17.275 16.275 16.975C16.4583 16.675 16.7 16.4417 17 16.275V14.125C16.1333 14.3583 15.4167 14.8292 14.85 15.5375C14.2833 16.2458 14 17.0667 14 18C14 19.1 14.3917 20.0417 15.175 20.825C15.9583 21.6083 16.9 22 18 22C19.1 22 20.0417 21.6083 20.825 20.825C21.6083 20.0417 22 19.1 22 18C22 17.4 21.8792 16.8458 21.6375 16.3375C21.3958 15.8292 21.0667 15.3833 20.65 15L22.075 13.575C22.6583 14.125 23.125 14.7792 23.475 15.5375C23.825 16.2958 24 17.1167 24 18C24 19.6667 23.4167 21.0833 22.25 22.25C21.0833 23.4167 19.6667 24 18 24C16.3333 24 14.9167 23.4167 13.75 22.25C12.5833 21.0833 12 19.6667 12 18C12 16.5 12.475 15.1958 13.425 14.0875C14.375 12.9792 15.5667 12.3083 17 12.075V10.05C15.0167 10.3 13.3542 11.175 12.0125 12.675C10.6708 14.175 10 15.95 10 18C10 20.2333 10.775 22.125 12.325 23.675C13.875 25.225 15.7667 26 18 26C20.2333 26 22.125 25.225 23.675 23.675C25.225 22.125 26 20.2333 26 18C26 16.85 25.775 15.775 25.325 14.775C24.875 13.775 24.2583 12.9083 23.475 12.175L24.9 10.75C25.85 11.6667 26.6042 12.7458 27.1625 13.9875C27.7208 15.2292 28 16.5667 28 18C28 19.3833 27.7375 20.6833 27.2125 21.9C26.6875 23.1167 25.975 24.175 25.075 25.075C24.175 25.975 23.1167 26.6875 21.9 27.2125C20.6833 27.7375 19.3833 28 18 28Z" fill="#003B6B"/>
</svg>
