<svg width="36" height="32" viewBox="0 0 36 32" fill="none" xmlns="http://www.w3.org/2000/svg">
<rect width="36.0017" height="32" rx="8" fill="white"/>
<path d="M16.45 19.5C16.85 19.9 17.3667 20.0958 18 20.0875C18.6333 20.0792 19.1 19.85 19.4 19.4L25 11L16.6 16.6C16.15 16.9 15.9125 17.3583 15.8875 17.975C15.8625 18.5917 16.05 19.1 16.45 19.5ZM18 8C18.9833 8 19.9292 8.1375 20.8375 8.4125C21.7458 8.6875 22.6 9.1 23.4 9.65L21.5 10.85C20.95 10.5667 20.3792 10.3542 19.7875 10.2125C19.1958 10.0708 18.6 10 18 10C15.7833 10 13.8958 10.7792 12.3375 12.3375C10.7792 13.8958 10 15.7833 10 18C10 18.7 10.0958 19.3917 10.2875 20.075C10.4792 20.7583 10.75 21.4 11.1 22H24.9C25.2833 21.3667 25.5625 20.7083 25.7375 20.025C25.9125 19.3417 26 18.6333 26 17.9C26 17.3 25.9292 16.7167 25.7875 16.15C25.6458 15.5833 25.4333 15.0333 25.15 14.5L26.35 12.6C26.85 13.3833 27.2458 14.2167 27.5375 15.1C27.8292 15.9833 27.9833 16.9 28 17.85C28.0167 18.8 27.9083 19.7083 27.675 20.575C27.4417 21.4417 27.1 22.2667 26.65 23.05C26.4667 23.35 26.2167 23.5833 25.9 23.75C25.5833 23.9167 25.25 24 24.9 24H11.1C10.75 24 10.4167 23.9167 10.1 23.75C9.78333 23.5833 9.53333 23.35 9.35 23.05C8.91667 22.3 8.58333 21.5042 8.35 20.6625C8.11667 19.8208 8 18.9333 8 18C8 16.6167 8.2625 15.3208 8.7875 14.1125C9.3125 12.9042 10.0292 11.8458 10.9375 10.9375C11.8458 10.0292 12.9083 9.3125 14.125 8.7875C15.3417 8.2625 16.6333 8 18 8Z" fill="#5D2C00"/>
</svg>
